# xmcd
#
# Track frame offsets:
#	150
#	25389
#	46755
#	81840
#	97159
#	130874
#	142678
#
# Disc length: 2079
#
# Revision: 2
# Processed by: cddbd v1.5.1PL0 Copyright (c) Steve Scherf et al.
# Submitted via: CDex 1.51
# Normalized: r1:TDELIM( - )
#
DISCID=53081d07
DTITLE=Live Your Life With Verve - A Touch of Vintage
DYEAR=2004
DGENRE=Jazz
TTITLE0=Jamie Cullum - Frontin
TTITLE1=Brazilian Girls - Sirenes de la Fete
TTITLE2=Alice Coltrane - Walk With Me
TTITLE3=Jesse Harris - Wild Eyes
TTITLE4=RH Factor - Bop Drop
TTITLE5=Hugh Masekela - Grazing in the Grass
TTITLE6=James Brown - Your Cheatin' Heart
EXTD=YEAR: 2004
EXTT0=
EXTT1=
EXTT2=
EXTT3=
EXTT4=
EXTT5=
EXTT6=
PLAYORDER=
